<?xml version="1.0" encoding="UTF-8"?>
<svg id="Layer_1" xmlns="http://www.w3.org/2000/svg" version="1.1" viewBox="0 70 400 120">
    <defs>
        <style>
            .st0 {
            fill: #38b07d;
            }

            .st1 {
            fill: #fcfaf3;
            }

            .st2 {
            fill: #232f5d;
            }

            .park-text {
            fill: #232f5d;
            font-family: Arial, Helvetica, sans-serif;
            font-size: 47px;
            font-weight: 700;
            letter-spacing: 1px;
            }
        </style>
    </defs>

    <g>
        <g>
            <path class="st2" d="M195.5,169.25v-8.41h2.7c.67,0,1.22.11,1.66.34s.75.52.96.9c.21.38.31.8.31,1.29s-.1.9-.31,1.28c-.21.38-.53.68-.95.91-.43.22-.98.34-1.66.34h-1.69v3.36h-1.01ZM196.51,165.03h1.68c.7,0,1.19-.15,1.48-.46.29-.3.43-.71.43-1.21s-.14-.94-.43-1.24-.78-.44-1.48-.44h-1.68v3.35Z"/>
            <path class="st2" d="M204.42,169.25v-8.41h5.2v.83h-4.19v2.93h3.83v.82h-3.83v3h4.19v.83h-5.2Z"/>
            <path class="st2" d="M213.17,169.25v-8.41h1.01l4.48,6.75v-6.75h1.01v8.41h-1.01l-4.48-6.75v6.75h-1.01Z"/>
            <path class="st2" d="M225.39,169.25v-7.58h-2.51v-.83h6.03v.83h-2.51v7.58h-1.01Z"/>
            <path class="st2" d="M232.12,169.25v-8.41h2.72c.66,0,1.19.11,1.61.33.42.22.72.51.93.88.2.37.3.79.3,1.25s-.1.86-.31,1.24-.52.68-.94.9c-.42.22-.97.34-1.63.34h-1.66v3.47h-1.01ZM233.13,164.98h1.63c.64,0,1.11-.16,1.41-.47.3-.31.45-.71.45-1.2s-.15-.89-.44-1.18c-.29-.29-.77-.44-1.44-.44h-1.62v3.29ZM236.56,169.25l-1.85-3.76h1.13l1.91,3.76h-1.19Z"/>
            <path class="st2" d="M244.21,169.39c-.58,0-1.1-.12-1.57-.35s-.84-.59-1.12-1.06c-.28-.48-.42-1.09-.42-1.83v-5.31h1.01v5.32c0,.54.09.99.27,1.33s.43.6.75.76.69.24,1.11.24.79-.08,1.11-.24c.31-.16.56-.41.73-.76.18-.34.27-.79.27-1.33v-5.32h1.01v5.31c0,.74-.14,1.36-.42,1.83-.28.48-.66.83-1.13,1.06s-1,.35-1.59.35Z"/>
            <path class="st2" d="M259.73,169.39c-.78,0-1.46-.18-2.05-.55-.59-.36-1.05-.87-1.38-1.53-.33-.65-.5-1.41-.5-2.28s.17-1.61.5-2.26c.33-.65.79-1.16,1.38-1.53.59-.37,1.27-.55,2.05-.55s1.48.18,2.07.55,1.04.88,1.37,1.53.49,1.41.49,2.26-.16,1.62-.49,2.28-.78,1.16-1.37,1.53c-.59.36-1.28.55-2.07.55ZM259.73,168.5c.58,0,1.09-.14,1.53-.41.43-.28.77-.67,1.01-1.19.24-.52.36-1.14.36-1.86s-.12-1.34-.36-1.86c-.24-.52-.58-.91-1.01-1.18-.43-.27-.94-.41-1.53-.41s-1.08.14-1.51.41c-.43.27-.77.67-1.02,1.18-.24.52-.37,1.14-.37,1.86s.12,1.34.37,1.86c.24.52.58.91,1.02,1.19.43.28.94.41,1.51.41Z"/>
            <path class="st2" d="M265.94,169.25l3.1-8.41h1.07l3.09,8.41h-1.08l-2.55-7.15-2.57,7.15h-1.06ZM267.36,167.08l.29-.82h3.81l.29.82h-4.39Z"/>
            <path class="st2" d="M276.41,169.25v-8.41h1.18l2.87,5.91,2.87-5.91h1.19v8.41h-1.01v-6.6l-2.67,5.48h-.76l-2.67-5.44v6.56h-1.01Z"/>
            <path class="st2" d="M288.28,169.25v-8.41h5.2v.83h-4.19v2.93h3.83v.82h-3.83v3h4.19v.83h-5.2Z"/>
            <path class="st2" d="M297.02,169.25v-8.41h1.01l4.48,6.75v-6.75h1.01v8.41h-1.01l-4.48-6.75v6.75h-1.01Z"/>
            <path class="st2" d="M307.28,169.25v-8.41h1.01v8.41h-1.01Z"/>
            <path class="st2" d="M320.75,169.39c-.79,0-1.48-.18-2.07-.55-.59-.36-1.04-.87-1.35-1.53s-.47-1.41-.47-2.28.16-1.62.47-2.28c.32-.65.77-1.16,1.35-1.53.58-.36,1.27-.55,2.07-.55.96,0,1.74.23,2.33.68.59.46.97,1.1,1.14,1.93h-1.09c-.14-.52-.4-.94-.79-1.26-.39-.32-.92-.47-1.59-.47-.58,0-1.08.14-1.51.41-.43.28-.77.67-1,1.19-.23.52-.35,1.14-.35,1.86s.12,1.34.35,1.86c.23.52.56.91,1,1.19s.94.41,1.51.41c.67,0,1.2-.15,1.59-.46.39-.31.65-.72.79-1.23h1.09c-.17.81-.55,1.44-1.14,1.9-.59.46-1.37.69-2.33.69Z"/>
            <path class="st2" d="M326.9,169.25l3.1-8.41h1.07l3.09,8.41h-1.08l-2.55-7.15-2.57,7.15h-1.06ZM328.32,167.08l.29-.82h3.81l.29.82h-4.39Z"/>
            <path class="st2" d="M344.47,169.25v-7.58h-2.51v-.83h6.03v.83h-2.51v7.58h-1.01Z"/>
            <path class="st2" d="M351.2,169.25v-8.41h1.01v8.41h-1.01Z"/>
            <path class="st2" d="M355.97,169.25v-8.41h1.01l4.48,6.75v-6.75h1.01v8.41h-1.01l-4.48-6.75v6.75h-1.01Z"/>
            <path class="st2" d="M366.23,169.25v-8.41h5.2v.83h-4.19v2.93h3.83v.82h-3.83v3h4.19v.83h-5.2Z"/>
        </g>

        <g>
            <path class="st2" d="M168.33,114.66c12.42,0,19.55,6.02,19.55,16.98s-7.13,16.98-19.55,16.98h-16.54c-.51,0-.92-.41-.92-.92v-32.11c0-.51.41-.92.92-.92h16.54ZM160.57,119.46v24.35c0,.51.41.92.92.92h6.84c5.92,0,9.02-2.28,9.02-8.68v-9.02c0-6.21-3.1-8.49-9.02-8.49h-6.84c-.51,0-.92.41-.92.92Z"/>

            <g>
                <path class="st0" d="M214.32,114.07h-2.22c-.1,0-.19.05-.25.13l-22.81,32.73c-.49.71.01,1.68.88,1.68h13.14c.47,0,.88-.3,1.02-.75l10.54-33.4c.06-.2-.08-.4-.29-.4Z"/>
                <path class="st0" d="M245.07,146.94l-22.81-32.73c-.06-.08-.15-.13-.25-.13h-2.22c-.21,0-.35.2-.29.4l10.54,33.4c.14.44.55.75,1.02.75h13.14c.86,0,1.37-.97.88-1.68Z"/>
            </g>

            <text class="park-text" x="260" y="148">PARK</text>
        </g>
    </g>
</svg>
